<?xml version="1.0" encoding="utf-8"?>
<!-- Generator: Adobe Illustrator 23.0.3, SVG Export Plug-In . SVG Version: 6.00 Build 0)  -->
<svg version="1.1" id="Layer_1" xmlns="http://www.w3.org/2000/svg" xmlns:xlink="http://www.w3.org/1999/xlink" x="0px" y="0px"
	 viewBox="0 0 1000 986" style="enable-background:new 0 0 1000 986;" xml:space="preserve">
<style type="text/css">
	.st0{fill:#31C5F4;}
	.st1{fill:#146AB4;}
	.st2{fill:#FFFFFF;}
</style>
<rect class="st0" width="1000" height="1000"/>
<g>
	<path class="st1" d="M124,358.2h54.4v54.4H124V358.2z"/>
	<path class="st2" d="M177.1,641.8v-196h-51.5v196H177.1z M519.6,643.7v-48c-7.6,0-13.9-0.4-18.6-1.2c-5.4-0.8-9.5-2.7-12.2-5.4
		c-2.7-2.7-4.5-6.6-5.4-11.6c-0.8-4.8-1.2-11.2-1.2-19v-68.6h37.4v-44.2h-37.4v-76.5h-51.7v189.7c0,16.1,1.4,29.6,4.1,40.5
		c2.7,10.7,7.4,19.4,13.8,26c6.4,6.6,14.9,11.2,25.2,14.1c10.5,2.9,23.6,4.3,39.3,4.3L519.6,643.7z M815.6,641.8V354.1h-51.7v287.7
		H815.6z M380.7,464.9c-14.3-15.5-34.5-23.2-60.1-23.2c-12.4,0-23.6,2.5-33.9,7.6c-10.1,5-18.8,12-25.6,20.9l-2.9,3.7v-28.1h-50.9
		v196h51.3V537.4v3.7c0.6-18.4,5-32,13.6-40.7c9.1-9.3,20.1-13.9,32.7-13.9c14.9,0,26.3,4.6,33.9,13.6c7.4,8.9,11.2,21.5,11.2,37.6
		v104h52.1V530.4C402.4,502.5,395,480.4,380.7,464.9L380.7,464.9z M737.1,543.4c0-14.1-2.5-27.3-7.4-39.7c-5-12.2-12-23.1-20.7-32.4
		c-8.9-9.3-19.6-16.5-32-21.7c-12.4-5.2-26.2-7.7-41.1-7.7c-14.1,0-27.5,2.7-39.9,7.9c-12.4,5.4-23.2,12.6-32.4,21.7
		c-9.1,9.1-16.5,20-21.7,32.4c-5.4,12.4-7.9,25.8-7.9,39.9s2.5,27.5,7.6,39.9s12.2,23.2,21.1,32.4c8.9,9.1,20,16.5,32.7,21.7
		c12.8,5.4,26.9,8.1,42,8.1c43.8,0,70.9-20,87.2-38.6L687.5,579c-7.7,9.3-26.3,21.9-49.6,21.9c-14.5,0-26.5-3.3-35.6-10.1
		c-9.1-6.6-15.3-15.9-18.6-27.3l-0.6-1.7h154L737.1,543.4z M583.5,525.4c0-14.3,16.5-39.3,51.9-39.5c35.5,0,52.1,25,52.1,39.3
		L583.5,525.4z M874.5,616.2c-1-2.3-2.3-4.3-4.1-6c-1.7-1.7-3.7-3.1-6-4.1c-2.3-1-4.8-1.5-7.4-1.5c-2.7,0-5,0.6-7.4,1.5
		c-2.3,1-4.3,2.3-6,4.1c-1.7,1.7-3.1,3.7-4.1,6c-1,2.3-1.5,4.8-1.5,7.4c0,2.7,0.6,5,1.5,7.4c1,2.3,2.3,4.3,4.1,6
		c1.7,1.7,3.7,3.1,6,4.1c2.3,1,4.8,1.5,7.4,1.5c2.7,0,5-0.6,7.4-1.5c2.3-1,4.3-2.3,6-4.1c1.7-1.7,3.1-3.7,4.1-6
		c1-2.3,1.5-4.8,1.5-7.4S875.4,618.6,874.5,616.2z M871.4,629.8c-0.8,1.9-1.9,3.7-3.3,5c-1.4,1.4-3.1,2.5-5,3.3
		c-1.9,0.8-3.9,1.2-6.2,1.2c-2.1,0-4.3-0.4-6.2-1.2c-1.9-0.8-3.7-1.9-5-3.3s-2.5-3.1-3.3-5c-0.8-1.9-1.2-3.9-1.2-6.2
		c0-2.1,0.4-4.3,1.2-6.2c0.8-1.9,1.9-3.7,3.3-5c1.4-1.4,3.1-2.5,5-3.3s3.9-1.2,6.2-1.2c2.1,0,4.3,0.4,6.2,1.2s3.7,1.9,5,3.3
		c1.4,1.4,2.5,3.1,3.3,5c0.8,1.9,1.2,3.9,1.2,6.2C872.7,625.9,872.1,627.9,871.4,629.8z M860.5,625.1c1.5-0.2,2.7-0.8,3.7-1.7
		c1-1,1.5-2.3,1.5-4.3c0-2.1-0.6-3.7-1.9-4.8c-1.2-1.2-3.3-1.7-5.8-1.7h-8.5v21.9h4.1v-8.9h2.9l5.4,8.9h4.3L860.5,625.1z M858.4,622
		h-4.8v-6.2h4.8c0.6,0,1.2,0.2,1.7,0.4c0.6,0.2,1,0.6,1.2,1s0.4,1,0.4,1.7c0,0.8-0.2,1.4-0.4,1.7c-0.4,0.4-0.8,0.8-1.2,1
		C859.5,621.8,859,622,858.4,622L858.4,622z"/>
</g>
</svg>
